Coordinates
version=1
nRows=4
nColumns=107
inDegrees=yes

Units are S.I. units (second, meters, Newtons, ...)
If the header above contains a line with 'inDegrees', this indicates whether rotational values are in degrees (yes) or radians (no).

endheader
time	sternoclavicular_r2	sternoclavicular_r3	unrotscap_r3	unrotscap_r2	acromioclavicular_r2	acromioclavicular_r3	acromioclavicular_r1	unrothum_r1	unrothum_r3	unrothum_r2	elv_angle	shoulder_elv	shoulder1_r2	shoulder_rot	elbow_flexion	pro_sup	deviation	flexion	proximal_distal_r1	proximal_distal_r3	cmc_flexion	cmc_abduction	mp_flexion	ip_flexion	mcp2_flexion	mcp2_abduction	pm2_flexion	md2_flexion	mcp3_flexion	mcp3_abduction	pm3_flexion	md3_flexion	mcp4_flexion	mcp4_abduction	pm4_flexion	md4_flexion	mcp5_flexion	mcp5_abduction	pm5_flexion	md5_flexion	bicpt_tx	bicpt_ty	bicpt_tz	bicpt2_tx	bicpt2_ty	bicpt2_tz	ptpt_tx	ptpt_ty	ptpt_tz	FCUpt_tx	FCUpt_ty	FCUpt_tz	EDCpt_tx	EDCpt_ty	EDCpt_tz	APLpt_tx	APLpt_ty	APLpt_tz	FPLpt_tx	FPLpt_ty	FPLpt_tz	FPLpt2_tx	FPLpt2_ty	FPLpt2_tz	PEC1pt2_tx	PEC1pt2_ty	PEC1pt2_tz	PEC1pt3_tx	PEC1pt3_ty	PEC1pt3_tz	PEC2pt2_tx	PEC2pt2_ty	PEC2pt2_tz	PEC2pt3_tx	PEC2pt3_ty	PEC2pt3_tz	PEC3pt2_tx	PEC3pt2_ty	PEC3pt2_tz	PEC3pt3_tx	PEC3pt3_ty	PEC3pt3_tz	DELT2pt2a_tx	DELT2pt2a_ty	DELT2pt2a_tz	DELT2pt2_tx	DELT2pt2_ty	DELT2pt2_tz	LAT1pt2_tx	LAT1pt2_ty	LAT1pt2_tz	LAT1pt3_tx	LAT1pt3_ty	LAT1pt3_tz	LAT2pt2_tx	LAT2pt2_ty	LAT2pt2_tz	LAT2pt3_tx	LAT2pt3_ty	LAT2pt3_tz	LAT3pt2_tx	LAT3pt2_ty	LAT3pt2_tz	LAT3pt3_tx	LAT3pt3_ty	LAT3pt3_tz
      0.00000000	     -0.31068345	      0.13159085	     -0.13159085	      0.31068345	     -0.06290708	      0.50839288	      0.22851910	     -0.22851910	     -0.50839288	      0.06290708	    102.39363281	     73.55706807	     -1.78710603	    -41.38865780	     31.57057785	     85.00916638	      0.36950354	     -0.42248229	      0.38971555	     -0.21124114	     42.28391979	    -11.57566580	      8.83959400	      7.07244837	    108.46716587	     12.51757262	     81.15522652	     78.60310693	     99.52664979	      0.36763834	     83.12728251	     57.43242795	     90.80457245	    -13.46329054	     99.17857092	     38.82807280	     98.43234496	    -14.32653916	     91.73943787	      5.76682536	      0.00094426	     -0.03121847	     -0.00488284	      0.01434122	     -0.01877630	     -0.00124504	      0.00126878	     -0.06896154	     -0.00689794	      0.01262433	     -0.18227115	      0.00005687	     -0.01020108	      0.00352379	     -0.00072566	      0.00028278	      0.00011311	      0.00056556	      0.00036196	      0.00108588	      0.00061081	     -0.00000682	     -0.00006380	     -0.00007657	      0.00241104	      0.00845907	      0.00588457	     -0.00788696	      0.01904312	     -0.01806236	      0.00241104	      0.00845907	      0.00588457	      0.00053125	      0.01765371	     -0.00927637	      0.00384789	      0.00470398	      0.01571790	      0.00000000	      0.00723266	      0.00000000	     -0.00690620	     -0.03191562	     -0.00596041	      0.02305933	     -0.00116161	     -0.01374301	     -0.00085817	      0.01438451	     -0.00588457	      0.00237017	      0.02075946	     -0.01716333	     -0.00576198	      0.01246385	     -0.00527159	     -0.01201433	      0.02631711	     -0.02946372	     -0.02255752	      0.01393499	     -0.00706966	     -0.01495662	      0.03040361	     -0.03681943
      0.03333333	     -0.31094192	      0.13170032	     -0.13170032	      0.31094192	     -0.06295941	      0.50881583	      0.22870922	     -0.22870922	     -0.50881583	      0.06295941	    102.44469695	     73.61826304	     -1.78799726	    -41.38011775	     31.39539692	     85.00966480	      0.36769270	     -0.42192925	      0.38835064	     -0.21096463	     42.37093572	    -11.62387023	      8.88542664	      7.08765607	    108.41334664	     12.49278866	     81.09505579	     78.58428260	     99.43953802	      0.35331509	     83.10690787	     57.42848101	     90.79324329	    -13.46953720	     99.17073645	     38.83409518	     98.43148781	    -14.30900323	     91.77243586	      5.77062909	      0.00093846	     -0.03119839	     -0.00487961	      0.01434115	     -0.01872871	     -0.00124495	      0.00126875	     -0.06896156	     -0.00689798	      0.01262439	     -0.18227113	      0.00005689	     -0.01020114	      0.00352382	     -0.00072568	      0.00028261	      0.00011304	      0.00056521	      0.00036174	      0.00108521	      0.00061043	     -0.00000664	     -0.00006189	     -0.00007427	      0.00241305	      0.00846611	      0.00588947	     -0.00789352	      0.01905897	     -0.01807739	      0.00241305	      0.00846611	      0.00588947	      0.00053169	      0.01766840	     -0.00928409	      0.00385027	      0.00470789	      0.01572395	      0.00000000	      0.00724478	      0.00000000	     -0.00691194	     -0.03194217	     -0.00597048	      0.02305670	     -0.00116130	     -0.01373796	     -0.00085888	      0.01439647	     -0.00588947	      0.00237215	      0.02077673	     -0.01717761	     -0.00576677	      0.01247422	     -0.00527598	     -0.01202433	      0.02633900	     -0.02948823	     -0.02257629	      0.01394658	     -0.00707554	     -0.01496906	      0.03042891	     -0.03685006
      0.06666667	     -0.31011708	      0.13135096	     -0.13135096	      0.31011708	     -0.06279240	      0.50746610	      0.22810252	     -0.22810252	     -0.50746610	      0.06279240	    102.68094816	     73.42297591	     -1.79212062	    -42.55885792	     31.54470359	     85.44057181	      0.34524980	     -0.44956014	      0.37098915	     -0.22478007	     42.34186936	    -11.81150930	      9.18930807	      7.58831099	    107.45668134	     12.42476284	     80.27738219	     74.40002941	     98.26222778	      0.13054534	     83.56272357	     55.76532444	     90.77843684	    -13.49879583	     98.40606657	     41.31455102	     97.90400870	    -14.29967497	     93.99527348	      5.67438128	      0.00094340	     -0.03121551	     -0.00488236	      0.01429741	     -0.01876927	     -0.00117165	      0.00123691	     -0.06898215	     -0.00693270	      0.01267378	     -0.18225664	      0.00006849	     -0.01025284	      0.00354736	     -0.00073933	      0.00029072	      0.00011629	      0.00058143	      0.00037212	      0.00111635	      0.00062795	     -0.00000670	     -0.00006253	     -0.00007503	      0.00240664	      0.00844365	      0.00587384	     -0.00787258	      0.01900841	     -0.01802943	      0.00240664	      0.00844365	      0.00587384	      0.00053028	      0.01762153	     -0.00925946	      0.00384268	      0.00469541	      0.01570462	      0.00000000	      0.00720616	      0.00000000	     -0.00689361	     -0.03185744	     -0.00593839	      0.02339068	     -0.00120462	     -0.01445262	     -0.00085660	      0.01435828	     -0.00587384	      0.00236585	      0.02072161	     -0.01713204	     -0.00575147	      0.01244113	     -0.00526198	     -0.01199243	      0.02626913	     -0.02941001	     -0.02251640	      0.01390959	     -0.00705677	     -0.01492935	      0.03034819	     -0.03675231
      0.10000000	     -0.31008662	      0.13133806	     -0.13133806	      0.31008662	     -0.06278623	      0.50741625	      0.22808011	     -0.22808011	     -0.50741625	      0.06278623	    102.67576064	     73.41576435	     -1.79203009	    -42.55945463	     31.53543936	     85.44067501	      0.34523560	     -0.44953936	      0.37097741	     -0.22476968	     42.34235068	    -11.81187797	      9.18959466	      7.58836101	    107.45545278	     12.42457995	     80.27678836	     74.39981033	     98.26061142	      0.13042758	     83.56250248	     55.76531839	     90.77763260	    -13.49884546	     98.40555085	     41.31462784	     97.90375302	    -14.29941533	     93.99552722	      5.67439506	      0.00094309	     -0.03121444	     -0.00488219	      0.01429736	     -0.01876676	     -0.00117160	      0.00123690	     -0.06898216	     -0.00693270	      0.01267380	     -0.18225663	      0.00006851	     -0.01025286	      0.00354737	     -0.00073934	      0.00029070	      0.00011628	      0.00058141	      0.00037210	      0.00111631	      0.00062792	     -0.00000670	     -0.00006252	     -0.00007502	      0.00240641	      0.00844282	      0.00587327	     -0.00787181	      0.01900654	     -0.01802766	      0.00240641	      0.00844282	      0.00587327	      0.00053023	      0.01761980	     -0.00925855	      0.00384240	      0.00469494	      0.01570391	      0.00000000	      0.00720473	      0.00000000	     -0.00689293	     -0.03185431	     -0.00593721	      0.02339068	     -0.00120465	     -0.01445308	     -0.00085652	      0.01435687	     -0.00587327	      0.00236562	      0.02071958	     -0.01713036	     -0.00575091	      0.01243990	     -0.00526147	     -0.01199125	      0.02626655	     -0.02940712	     -0.02251419	      0.01390822	     -0.00705608	     -0.01492788	      0.03034521	     -0.03674870
